<svg width="78" height="22" viewBox="0 0 78 22" fill="none" xmlns="http://www.w3.org/2000/svg">
<g id="Brand">
<path d="M0.213867 20.8061H9.10321C13.7765 20.8061 16.2655 18.3679 16.2655 15.056C16.2655 11.9778 14.0609 10.1186 11.6938 10.0069V9.80368C13.8577 9.31603 15.4527 7.78199 15.4527 5.33361C15.4527 2.21472 13.1364 0 8.54445 0H0.213867V20.8061ZM4.61282 17.2098V11.6831H8.30063C10.4138 11.6831 11.7243 12.9022 11.7243 14.6192C11.7243 16.1837 10.6576 17.2098 8.19904 17.2098H4.61282ZM4.61282 8.70648V3.55574H7.95522C9.90579 3.55574 11.0131 4.5615 11.0131 6.06507C11.0131 7.71087 9.67213 8.70648 7.87394 8.70648H4.61282Z" fill="#8CB7F5"/>
<path d="M18.5184 20.8061H22.8463V11.9778C22.8463 10.0577 24.2482 8.73696 26.1582 8.73696C26.7576 8.73696 27.5805 8.83855 27.9868 8.97062V5.13042C27.6008 5.03899 27.0624 4.97803 26.6255 4.97803C24.8781 4.97803 23.4457 5.99396 22.8767 7.92422H22.7142V5.20154H18.5184V20.8061Z" fill="#8CB7F5"/>
<path d="M33.699 21.1008C36.0052 21.1008 37.4986 20.095 38.2605 18.6422H38.3824V20.8061H42.4868V10.2812C42.4868 6.56288 39.3374 4.99835 35.8629 4.99835C32.1243 4.99835 29.6658 6.78638 29.0664 9.63097L33.0691 9.95607C33.3638 8.91982 34.2882 8.15788 35.8426 8.15788C37.3157 8.15788 38.1589 8.8995 38.1589 10.1796V10.2405C38.1589 11.2463 37.0922 11.3784 34.3797 11.6425C31.2913 11.927 28.5178 12.9632 28.5178 16.4478C28.5178 19.5362 30.7223 21.1008 33.699 21.1008ZM34.9384 18.1139C33.6076 18.1139 32.6526 17.4942 32.6526 16.3056C32.6526 15.0865 33.6584 14.4871 35.1823 14.2737C36.1271 14.1417 37.6713 13.9182 38.1894 13.5728V15.2287C38.1894 16.8644 36.8382 18.1139 34.9384 18.1139Z" fill="#8CB7F5"/>
<path d="M49.6441 11.7847C49.6542 9.7732 50.853 8.59473 52.6004 8.59473C54.3376 8.59473 55.384 9.73256 55.3739 11.6425V20.8061H59.7017V10.8704C59.7017 7.23339 57.5683 4.99835 54.3173 4.99835C52.001 4.99835 50.3247 6.13619 49.6238 7.95469H49.4409V5.20154H45.3162V20.8061H49.6441V11.7847Z" fill="#8CB7F5"/>
<path d="M68.3347 21.0601C70.8542 21.0601 72.1647 19.6074 72.7641 18.307H72.947V20.8061H77.2139V0H72.8962V7.82262H72.7641C72.185 6.55272 70.9354 4.99835 68.3245 4.99835C64.9008 4.99835 62.0055 7.66008 62.0055 13.0242C62.0055 18.246 64.7789 21.0601 68.3347 21.0601ZM69.7062 17.6161C67.5829 17.6161 66.4247 15.7265 66.4247 13.0038C66.4247 10.3015 67.5626 8.44234 69.7062 8.44234C71.8091 8.44234 72.9876 10.2202 72.9876 13.0038C72.9876 15.7875 71.7888 17.6161 69.7062 17.6161Z" fill="#8CB7F5"/>
</g>
</svg>
